<?xml version="1.0" encoding="utf-8"?>
<!-- Generator: Adobe Illustrator 23.0.3, SVG Export Plug-In . SVG Version: 6.00 Build 0)  -->
<svg version="1.1" id="Layer_1" xmlns="http://www.w3.org/2000/svg" xmlns:xlink="http://www.w3.org/1999/xlink" x="0px" y="0px"
	 viewBox="0 0 1282.8 263.9" style="enable-background:new 0 0 1282.8 263.9;" xml:space="preserve">
<style type="text/css">
	.st0{fill:#0A48B3;}
	.st1{fill:#172B4D;}
</style>
<g>
	<g>
		<polygon class="st0" points="129.6,114.1 78.6,165.2 48,134.5 58.1,124.4 78.6,144.8 119.4,103.9 		"/>
		<path class="st1" d="M31,131.9c0-16.8,7.4-31.9,18.9-42.5l17.2,17.2V63.3H23.8l15.9,15.9c-14.2,13.1-23.1,31.8-23.1,52.7
			c0,37.5,28.5,68.2,65,71.9v-14.6C53.1,185.7,31,161.3,31,131.9z"/>
		<path class="st1" d="M161,131.9c0-37.5-28.5-68.2-65-71.9v14.6c28.5,3.5,50.5,27.9,50.5,57.3c0,16.8-7.4,31.9-18.9,42.5
			l-17.2-17.2v43.3h43.3l-15.9-15.9C152,171.5,161,152.8,161,131.9z"/>
	</g>
	<g>
		<path class="st0" d="M198.3,191.4v-120h42.5c42.6,0,63.9,19.5,63.9,58.5c0,18.7-5.8,33.6-17.4,44.8
			c-11.6,11.2-27.1,16.7-46.5,16.7H198.3z M225.3,93.4v76.1h13.4c11.7,0,20.9-3.5,27.6-10.5c6.7-7,10-16.6,10-28.7
			c0-11.4-3.3-20.4-9.9-27c-6.6-6.6-15.9-9.8-27.8-9.8H225.3z"/>
		<path class="st0" d="M422.5,139.5c0,36-16.8,54.1-50.4,54.1c-32.6,0-48.9-17.6-48.9-52.8V71.4h27.1V141c0,19.4,7.6,29.1,22.8,29.1
			c14.9,0,22.3-9.4,22.3-28.1V71.4h27V139.5z"/>
		<path class="st0" d="M532.9,93.4h-34.2v98h-27.1v-98h-34.1v-22h95.4V93.4z"/>
		<path class="st0" d="M641.9,71.4l-39.1,77.3v42.7h-27v-42.2l-38.1-77.8h30.9l19.3,44.8c0.3,0.8,1.3,4.1,2.8,9.8h0.3
			c0.7-4,1.6-7.2,2.6-9.5l19.7-45.1H641.9z"/>
		<path class="st1" d="M685.3,70.1c2.4,0.1,5.5,0.2,9.4,0.3c3.9,0.1,7.7,0.2,11.5,0.2c5.4,0,10.5-0.1,15.4-0.2
			c4.9-0.1,8.4-0.2,10.5-0.2c13.8,0,24.2,2.9,31,8.6c6.9,5.7,10.3,12.8,10.3,21.3c0,3.4-0.7,7.1-2.1,11c-1.4,3.9-3.7,7.5-7.1,11
			c-3.4,3.4-8,6.3-13.8,8.5c-5.8,2.2-13.2,3.3-22.1,3.3h-16.5v-3.4h14.7c8.1,0,14.3-1.3,18.6-3.9c4.3-2.6,7.2-6,8.7-10.3
			c1.5-4.3,2.3-9.1,2.3-14.3c0-9-2.1-16-6.4-21c-4.3-5-11.6-7.5-22-7.5c-5.3,0-8.7,1-10.3,2.9c-1.6,1.9-2.4,5.9-2.4,11.8v85
			c0,4.1,0.3,7.2,1,9.3c0.7,2.1,2,3.4,4,4.1c2,0.7,4.9,1.1,8.8,1.4v3.4c-2.6-0.2-5.9-0.4-9.9-0.4c-3.9-0.1-7.9-0.1-11.9-0.1
			c-4.5,0-8.6,0-12.5,0.1c-3.9,0.1-7,0.2-9.4,0.4V188c3.9-0.2,6.8-0.7,8.8-1.4c2-0.7,3.3-2.1,4-4.1c0.7-2.1,1-5.1,1-9.3v-85
			c0-4.2-0.3-7.3-1-9.3c-0.7-2-2-3.4-4-4.1c-2-0.7-4.9-1.2-8.8-1.3V70.1z M712.5,130.9c6.2,0.2,11,0.5,14.6,0.8
			c3.5,0.3,6.4,0.5,8.7,0.8c2.2,0.2,4.4,0.5,6.4,0.9c7.7,1.3,13.2,3.6,16.5,6.9c3.4,3.4,5.9,8.6,7.5,15.7l4.3,17.5
			c1.1,5,2.3,8.7,3.5,10.9c1.2,2.2,3.1,3.3,5.6,3.2c1.9-0.1,3.6-0.7,4.9-1.9c1.3-1.1,2.7-2.7,4.2-4.6l2.6,1.9
			c-2.4,3.5-4.9,6.3-7.5,8.1c-2.6,1.9-6.2,2.8-10.9,2.8c-4.2,0-7.9-1.3-11.1-3.8c-3.2-2.5-5.6-7.4-7.2-14.7l-3.8-17.1
			c-1-4.9-2.2-9.2-3.5-12.8c-1.3-3.6-3.1-6.4-5.5-8.5c-2.3-2.1-5.8-3.1-10.4-3.1h-18.5L712.5,130.9z"/>
		<path class="st1" d="M836.1,100.8c7.3,0,13.9,1.6,19.7,4.8c5.8,3.2,10.5,8.2,14,15.1c3.5,6.9,5.2,15.8,5.2,26.7
			c0,11-1.7,19.9-5.2,26.7c-3.5,6.8-8.1,11.8-14,15c-5.8,3.2-12.4,4.8-19.7,4.8c-7.2,0-13.7-1.6-19.6-4.8c-5.9-3.2-10.6-8.2-14.1-15
			c-3.5-6.8-5.2-15.7-5.2-26.7c0-11,1.7-19.9,5.2-26.7c3.5-6.9,8.2-11.9,14.1-15.1C822.4,102.4,828.9,100.8,836.1,100.8z
			 M836.1,104.2c-6.5,0-11.9,3.4-16,10.1c-4.2,6.7-6.3,17.8-6.3,33.1c0,15.3,2.1,26.3,6.3,33c4.2,6.7,9.5,10,16,10
			c6.5,0,11.9-3.3,16-10c4.2-6.7,6.3-17.7,6.3-33c0-15.3-2.1-26.3-6.3-33.1C847.9,107.6,842.6,104.2,836.1,104.2z"/>
		<path class="st1" d="M911,192.6c-7.4,0-12.8-1.9-16.2-5.6c-3.4-3.7-5.1-8.7-5.1-14.8c0-4.8,1.2-8.8,3.5-11.9
			c2.3-3.1,5.3-5.7,9-7.7c3.7-2,7.5-3.7,11.6-5.1c4.1-1.4,7.9-2.8,11.6-4.2c3.7-1.4,6.7-2.9,9-4.6c2.3-1.7,3.5-3.9,3.5-6.5v-10.6
			c0-4.8-0.7-8.5-2.1-11c-1.4-2.5-3.3-4.2-5.7-5.1c-2.4-0.9-5.1-1.3-8.1-1.3c-2.9,0-5.9,0.4-9.2,1.2c-3.3,0.8-5.9,2.5-7.8,5
			c2.2,0.5,4.1,1.6,5.7,3.4c1.6,1.8,2.4,4.2,2.4,7c0,2.9-0.9,5.1-2.7,6.8c-1.8,1.7-4.2,2.5-7,2.5c-3.3,0-5.7-1.1-7.3-3.2
			c-1.5-2.1-2.3-4.5-2.3-7.1c0-3,0.7-5.4,2.2-7.2c1.5-1.8,3.4-3.5,5.7-5.1c2.6-1.8,6-3.4,10.2-4.7c4.2-1.3,8.9-2,14.1-2
			c4.7,0,8.7,0.5,12,1.6c3.3,1.1,6.1,2.7,8.2,4.7c3,2.7,4.9,6.1,5.8,10c0.9,3.9,1.4,8.7,1.4,14.1v47.6c0,2.7,0.4,4.8,1.2,6.1
			c0.8,1.3,2.2,2,4.1,2c1.6,0,3-0.3,4.2-1c1.2-0.7,2.4-1.5,3.5-2.6l1.9,2.9c-2.4,1.8-4.7,3.3-6.9,4.5c-2.2,1.2-5.1,1.8-8.7,1.8
			c-5.9,0-9.9-1.5-11.8-4.6c-1.9-3.1-2.9-6.6-2.9-10.6c-3.7,6.1-7.8,10.1-12.4,12.2C920.8,191.6,916,192.6,911,192.6z M918.5,185.8
			c3.4,0,6.8-1,10.1-3c3.3-2,6.4-5.3,9.3-10v-33.6c-1.7,2.5-4.4,4.5-8,6c-3.6,1.5-7.3,3.1-11.1,4.9c-3.8,1.8-7.1,4.2-9.9,7.2
			c-2.7,3-4.1,7.3-4.1,12.9c0,5.3,1.3,9.2,3.9,11.7C911.4,184.5,914.6,185.8,918.5,185.8z"/>
		<path class="st1" d="M1004,100.8c4.6,0,8.5,0.7,11.7,2.2c3.2,1.5,5.5,2.9,7,4.1c3.8,3.1,6.1,1,6.9-6.2h3.9
			c-0.2,3.2-0.4,7-0.5,11.4c-0.1,4.4-0.2,10.3-0.2,17.7h-3.9c-0.7-4.2-1.9-8.3-3.5-12.3c-1.7-4-4.1-7.3-7.3-9.9
			c-3.2-2.6-7.4-3.9-12.5-3.9c-4,0-7.3,1.1-10,3.3c-2.7,2.2-4,5.5-4,9.9c0,3.4,1,6.4,3.1,8.8c2.1,2.5,4.7,4.7,8.1,6.9
			c3.3,2.1,6.9,4.4,10.8,6.9c6.5,4.2,12.1,8.5,16.6,12.9c4.6,4.3,6.9,10.1,6.9,17.1c0,5.3-1.4,9.7-4.1,13.2
			c-2.7,3.5-6.3,6.2-10.7,8.1c-4.4,1.8-9.2,2.7-14.5,2.7c-2.5,0-4.9-0.2-7.1-0.6c-2.2-0.4-4.4-1-6.4-1.8c-1.1-0.6-2.3-1.3-3.5-2.1
			c-1.2-0.8-2.4-1.7-3.5-2.6c-1.1-0.9-2.2-0.9-3.1,0.1c-0.9,1-1.6,2.9-2.1,5.7H978c0.2-3.7,0.4-8.1,0.5-13.4
			c0.1-5.3,0.2-12.2,0.2-20.9h3.9c0.8,6.4,1.9,12,3.4,16.8c1.5,4.8,3.8,8.5,7,11.2c3.2,2.7,7.7,4,13.4,4c3.4,0,6.8-1.2,10.2-3.6
			c3.4-2.4,5.1-6.6,5.1-12.7c0-5-1.8-9.1-5.5-12.3c-3.7-3.2-8.3-6.6-13.9-10.1c-4.1-2.6-8-5.3-11.6-7.9c-3.6-2.6-6.5-5.6-8.7-8.9
			c-2.2-3.3-3.3-7.3-3.3-12c0-5.1,1.2-9.3,3.5-12.6c2.3-3.3,5.5-5.7,9.3-7.2C995.4,101.5,999.6,100.8,1004,100.8z"/>
		<path class="st1" d="M1077.6,74.7v28.6h25.4v3.4h-25.4v66.3c0,5.4,1,9.1,2.9,11.3c1.9,2.2,4.6,3.3,8.1,3.3s6.4-1.4,8.9-4.2
			c2.5-2.8,4.7-7.5,6.5-14.1l3.4,0.9c-1.1,6.6-3.4,12.2-6.8,16.8c-3.4,4.6-8.5,6.9-15.5,6.9c-3.9,0-7.1-0.5-9.6-1.5
			c-2.5-1-4.7-2.4-6.7-4.2c-2.5-2.6-4.3-5.8-5.2-9.4c-1-3.7-1.5-8.5-1.5-14.6v-57.4h-16.5v-3.4h16.5V77.1c2.9-0.1,5.6-0.3,8.2-0.7
			C1073,76.1,1075.4,75.5,1077.6,74.7z"/>
		<path class="st1" d="M1152.3,100.8c10.1,0,17.9,3.1,23.6,9.2c5.7,6.1,8.5,15.6,8.5,28.5h-60.5l-0.2-3.3h44.2
			c0.2-5.6-0.2-10.8-1.4-15.5c-1.1-4.7-2.9-8.5-5.4-11.4c-2.5-2.9-5.6-4.3-9.5-4.3c-5.3,0-9.9,2.6-14,7.9c-4.1,5.3-6.5,13.6-7.3,25
			l0.5,0.7c-0.2,1.7-0.4,3.6-0.5,5.7c-0.1,2.1-0.2,4.1-0.2,6.2c0,7.8,1.3,14.5,3.8,20.1c2.5,5.6,5.8,9.9,9.9,12.8
			c4.1,2.9,8.3,4.4,12.6,4.4c5.1,0,9.9-1.3,14.2-3.8c4.3-2.5,8-7,11-13.4l3.4,1.4c-1.3,3.8-3.3,7.4-6.2,11
			c-2.9,3.5-6.5,6.4-10.8,8.7c-4.3,2.2-9.4,3.3-15.1,3.3c-8.2,0-15.3-1.9-21.2-5.7c-5.9-3.8-10.4-9-13.5-15.7
			c-3.1-6.7-4.7-14.4-4.7-23.1c0-10.1,1.6-18.7,4.8-26c3.2-7.3,7.7-12.9,13.5-16.8C1137.7,102.7,1144.5,100.8,1152.3,100.8z"/>
		<path class="st1" d="M1250.7,100.8c3.1,0,5.8,0.6,8.1,1.9c2.3,1.3,4.2,2.9,5.5,4.9c1.3,2,2,4.3,2,6.8c0,2.9-0.9,5.4-2.7,7.5
			c-1.8,2.2-4.1,3.3-7.1,3.3c-2.4,0-4.5-0.8-6.3-2.3c-1.8-1.5-2.7-3.7-2.7-6.6c0-2.2,0.6-4,1.8-5.6c1.2-1.5,2.5-2.8,4-3.7
			c-0.8-1.1-2-1.7-3.6-1.7c-4.8,0-9,1.8-12.5,5.4c-3.5,3.6-6.3,7.9-8.3,12.9c-2,5-3,9.7-3,13.9v36.3c0,5.6,1.6,9.3,4.9,11.2
			c3.3,1.9,7.7,2.8,13.3,2.8v3.6c-2.6-0.1-6.3-0.3-11.1-0.4c-4.8-0.2-9.9-0.3-15.3-0.3c-3.9,0-7.7,0.1-11.6,0.3
			c-3.8,0.2-6.7,0.3-8.7,0.4v-3.6c4.7,0,8-0.9,10-2.6c2-1.7,3-5,3-9.8v-53.6c0-5.1-0.9-8.9-2.7-11.4c-1.8-2.5-5.3-3.7-10.3-3.7v-3.6
			c3.7,0.3,7.2,0.5,10.6,0.5c3.3,0,6.5-0.2,9.5-0.6c3-0.4,5.8-1,8.3-1.8v21.4c1.3-3.3,3.1-6.7,5.4-10c2.3-3.4,5.2-6.2,8.5-8.5
			C1243,101.9,1246.7,100.8,1250.7,100.8z"/>
	</g>
</g>
</svg>
